<svg width="16" height="16" viewBox="0 0 16 16" fill="none" xmlns="http://www.w3.org/2000/svg">
<path fill-rule="evenodd" clip-rule="evenodd" d="M5.92593 5.42593C5.92593 5.70207 5.70207 5.92593 5.42593 5.92593H3.7037C2.4764 5.92593 1.48148 4.931 1.48148 3.7037C1.48148 2.4764 2.4764 1.48148 3.7037 1.48148C4.931 1.48148 5.92593 2.4764 5.92593 3.7037V5.42593ZM3.7037 0C5.7492 0 7.40741 1.6582 7.40741 3.7037V5.92593C7.40741 6.74413 6.74413 7.40741 5.92593 7.40741H3.7037C1.6582 7.40741 0 5.7492 0 3.7037C0 1.6582 1.6582 0 3.7037 0ZM12.2963 5.92593H10.5741C10.2979 5.92593 10.0741 5.70207 10.0741 5.42593V3.7037C10.0741 2.4764 11.069 1.48148 12.2963 1.48148C13.5236 1.48148 14.5185 2.4764 14.5185 3.7037C14.5185 4.931 13.5236 5.92593 12.2963 5.92593ZM8.59259 3.7037C8.59259 1.6582 10.2508 0 12.2963 0C14.3418 0 16 1.6582 16 3.7037C16 5.7492 14.3418 7.40741 12.2963 7.40741H10.0741C9.25587 7.40741 8.59259 6.74413 8.59259 5.92593V3.7037ZM12.2963 10.0741H10.5741C10.2979 10.0741 10.0741 10.2979 10.0741 10.5741V12.2963C10.0741 13.5236 11.069 14.5185 12.2963 14.5185C13.5236 14.5185 14.5185 13.5236 14.5185 12.2963C14.5185 11.069 13.5236 10.0741 12.2963 10.0741ZM8.59259 12.2963C8.59259 14.3418 10.2508 16 12.2963 16C14.3418 16 16 14.3418 16 12.2963C16 10.2508 14.3418 8.59259 12.2963 8.59259H10.0741C9.25587 8.59259 8.59259 9.25587 8.59259 10.0741V12.2963ZM3.7037 10.0741H5.42593C5.70207 10.0741 5.92593 10.2979 5.92593 10.5741V12.2963C5.92593 13.5236 4.931 14.5185 3.7037 14.5185C2.4764 14.5185 1.48148 13.5236 1.48148 12.2963C1.48148 11.069 2.4764 10.0741 3.7037 10.0741ZM7.40741 12.2963C7.40741 14.3418 5.7492 16 3.7037 16C1.6582 16 0 14.3418 0 12.2963C0 10.2508 1.6582 8.59259 3.7037 8.59259H5.92593C6.74413 8.59259 7.40741 9.25587 7.40741 10.0741V12.2963Z" fill="#5c5551"/>
</svg>
